<?xml version="1.0" encoding="UTF-8" standalone="no"?><svg xmlns="http://www.w3.org/2000/svg" xmlns:xlink="http://www.w3.org/1999/xlink" contentScriptType="application/ecmascript" contentStyleType="text/css" height="446px" preserveAspectRatio="none" style="width:334px;height:446px;background:#FFFFFF;" version="1.1" viewBox="0 0 334 446" width="334px" zoomAndPan="magnify"><defs><filter height="300%" id="f1ig2n34gxnqs8" width="300%" x="-1" y="-1"><feGaussianBlur result="blurOut" stdDeviation="2.0"/><feColorMatrix in="blurOut" result="blurOut2" type="matrix" values="0 0 0 0 0 0 0 0 0 0 0 0 0 0 0 0 0 0 .4 0"/><feOffset dx="4.0" dy="4.0" in="blurOut2" result="blurOut3"/><feBlend in="SourceGraphic" in2="blurOut3" mode="normal"/></filter></defs><g><rect fill="#DDDDDD" height="434.0547" style="stroke:#A80036;stroke-width:1.0;" width="217" x="16" y="6"/><text fill="#000000" font-family="sans-serif" font-size="13" font-weight="bold" lengthAdjust="spacing" textLength="84" x="82.5" y="18.0669">Application</text><rect fill="#FFFFFF" filter="url(#f1ig2n34gxnqs8)" height="162.7969" style="stroke:#000000;stroke-width:2.0;" width="310" x="10" y="90.4297"/><rect fill="#FFFFFF" filter="url(#f1ig2n34gxnqs8)" height="104.5313" style="stroke:#000000;stroke-width:2.0;" width="310" x="10" y="267.2266"/><line style="stroke:#A80036;stroke-width:1.0;stroke-dasharray:5.0,5.0;" x1="70" x2="70" y1="73.4297" y2="388.7578"/><line style="stroke:#A80036;stroke-width:1.0;stroke-dasharray:5.0,5.0;" x1="180" x2="180" y1="73.4297" y2="388.7578"/><line style="stroke:#A80036;stroke-width:1.0;stroke-dasharray:5.0,5.0;" x1="274" x2="274" y1="73.4297" y2="388.7578"/><rect fill="#FEFECE" filter="url(#f1ig2n34gxnqs8)" height="30.2969" style="stroke:#A80036;stroke-width:1.5;" width="97" x="20" y="38.1328"/><text fill="#000000" font-family="sans-serif" font-size="14" lengthAdjust="spacing" textLength="83" x="27" y="58.1279">Application</text><rect fill="#FEFECE" filter="url(#f1ig2n34gxnqs8)" height="30.2969" style="stroke:#A80036;stroke-width:1.5;" width="97" x="20" y="387.7578"/><text fill="#000000" font-family="sans-serif" font-size="14" lengthAdjust="spacing" textLength="83" x="27" y="407.7529">Application</text><text fill="#000000" font-family="sans-serif" font-size="14" lengthAdjust="spacing" textLength="92" x="131" y="70.1279">TokenHolder</text><ellipse cx="180" cy="41.1328" fill="#FEFECE" filter="url(#f1ig2n34gxnqs8)" rx="12" ry="12" style="stroke:#A80036;stroke-width:2.0;"/><line style="stroke:#A80036;stroke-width:2.0;" x1="168" x2="192" y1="55.1328" y2="55.1328"/><text fill="#000000" font-family="sans-serif" font-size="14" lengthAdjust="spacing" textLength="92" x="131" y="400.7529">TokenHolder</text><ellipse cx="180" cy="420.0547" fill="#FEFECE" filter="url(#f1ig2n34gxnqs8)" rx="12" ry="12" style="stroke:#A80036;stroke-width:2.0;"/><line style="stroke:#A80036;stroke-width:2.0;" x1="168" x2="192" y1="434.0547" y2="434.0547"/><rect fill="#FEFECE" filter="url(#f1ig2n34gxnqs8)" height="30.2969" style="stroke:#A80036;stroke-width:1.5;" width="67" x="239" y="38.1328"/><text fill="#000000" font-family="sans-serif" font-size="14" lengthAdjust="spacing" textLength="53" x="246" y="58.1279">Service</text><rect fill="#FEFECE" filter="url(#f1ig2n34gxnqs8)" height="30.2969" style="stroke:#A80036;stroke-width:1.5;" width="67" x="239" y="387.7578"/><text fill="#000000" font-family="sans-serif" font-size="14" lengthAdjust="spacing" textLength="53" x="246" y="407.7529">Service</text><path d="M10,90.4297 L124,90.4297 L124,97.4297 L114,107.4297 L10,107.4297 L10,90.4297 " fill="#EEEEEE" style="stroke:#000000;stroke-width:1.0;"/><rect fill="none" height="162.7969" style="stroke:#000000;stroke-width:2.0;" width="310" x="10" y="90.4297"/><text fill="#000000" font-family="sans-serif" font-size="13" font-weight="bold" lengthAdjust="spacing" textLength="69" x="25" y="103.4966">Thread-1</text><polygon fill="#A80036" points="168,124.6953,178,128.6953,168,132.6953,172,128.6953" style="stroke:#A80036;stroke-width:1.0;"/><line style="stroke:#A80036;stroke-width:1.0;" x1="70.5" x2="174" y1="128.6953" y2="128.6953"/><text fill="#000000" font-family="sans-serif" font-size="13" lengthAdjust="spacing" textLength="61" x="77.5" y="123.6294">get token</text><polygon fill="#A80036" points="262.5,153.8281,272.5,157.8281,262.5,161.8281,266.5,157.8281" style="stroke:#A80036;stroke-width:1.0;"/><line style="stroke:#A80036;stroke-width:1.0;" x1="180" x2="268.5" y1="157.8281" y2="157.8281"/><text fill="#000000" font-family="sans-serif" font-size="13" lengthAdjust="spacing" textLength="61" x="187" y="152.7622">get token</text><polygon fill="#A80036" points="191,182.9609,181,186.9609,191,190.9609,187,186.9609" style="stroke:#A80036;stroke-width:1.0;"/><line style="stroke:#A80036;stroke-width:1.0;stroke-dasharray:2.0,2.0;" x1="185" x2="273.5" y1="186.9609" y2="186.9609"/><text fill="#000000" font-family="sans-serif" font-size="13" lengthAdjust="spacing" textLength="44" x="197" y="181.895">token1</text><polygon fill="#A80036" points="81.5,212.0938,71.5,216.0938,81.5,220.0938,77.5,216.0938" style="stroke:#A80036;stroke-width:1.0;"/><line style="stroke:#A80036;stroke-width:1.0;stroke-dasharray:2.0,2.0;" x1="75.5" x2="179" y1="216.0938" y2="216.0938"/><text fill="#000000" font-family="sans-serif" font-size="13" lengthAdjust="spacing" textLength="44" x="87.5" y="211.0278">token1</text><polygon fill="#A80036" points="262.5,241.2266,272.5,245.2266,262.5,249.2266,266.5,245.2266" style="stroke:#A80036;stroke-width:1.0;"/><line style="stroke:#A80036;stroke-width:1.0;" x1="70.5" x2="268.5" y1="245.2266" y2="245.2266"/><text fill="#000000" font-family="sans-serif" font-size="13" lengthAdjust="spacing" textLength="81" x="77.5" y="240.1606">call endpoint</text><path d="M10,267.2266 L124,267.2266 L124,274.2266 L114,284.2266 L10,284.2266 L10,267.2266 " fill="#EEEEEE" style="stroke:#000000;stroke-width:1.0;"/><rect fill="none" height="104.5313" style="stroke:#000000;stroke-width:2.0;" width="310" x="10" y="267.2266"/><text fill="#000000" font-family="sans-serif" font-size="13" font-weight="bold" lengthAdjust="spacing" textLength="69" x="25" y="280.2935">Thread-2</text><polygon fill="#A80036" points="168,301.4922,178,305.4922,168,309.4922,172,305.4922" style="stroke:#A80036;stroke-width:1.0;"/><line style="stroke:#A80036;stroke-width:1.0;" x1="70.5" x2="174" y1="305.4922" y2="305.4922"/><text fill="#000000" font-family="sans-serif" font-size="13" lengthAdjust="spacing" textLength="61" x="77.5" y="300.4263">get token</text><polygon fill="#A80036" points="81.5,330.625,71.5,334.625,81.5,338.625,77.5,334.625" style="stroke:#A80036;stroke-width:1.0;"/><line style="stroke:#A80036;stroke-width:1.0;stroke-dasharray:2.0,2.0;" x1="75.5" x2="179" y1="334.625" y2="334.625"/><text fill="#000000" font-family="sans-serif" font-size="13" lengthAdjust="spacing" textLength="44" x="87.5" y="329.5591">token1</text><polygon fill="#A80036" points="262.5,359.7578,272.5,363.7578,262.5,367.7578,266.5,363.7578" style="stroke:#A80036;stroke-width:1.0;"/><line style="stroke:#A80036;stroke-width:1.0;" x1="70.5" x2="268.5" y1="363.7578" y2="363.7578"/><text fill="#000000" font-family="sans-serif" font-size="13" lengthAdjust="spacing" textLength="81" x="77.5" y="358.6919">call endpoint</text><!--MD5=[a685078a7d02ba1727f0266f1fa0ab22]
@startuml
box "Application"
participant Application AS app
entity "TokenHolder" AS th
end box
participant "Service" AS s

group Thread-1
app -> th: get token
th -> s: get token
s - -> th: token1
th - -> app: token1

app -> s: call endpoint
end

group Thread-2
app -> th: get token
th - -> app: token1

app -> s: call endpoint
end
@enduml

PlantUML version 1.2021.9beta2(Unknown compile time)
(GPL source distribution)
Java Runtime: Java(TM) SE Runtime Environment
JVM: Java HotSpot(TM) 64-Bit Server VM
Default Encoding: UTF-8
Language: en
Country: US
--></g></svg>