<?xml version="1.0" encoding="UTF-8" standalone="no"?><svg xmlns="http://www.w3.org/2000/svg" xmlns:xlink="http://www.w3.org/1999/xlink" contentScriptType="application/ecmascript" contentStyleType="text/css" height="685px" preserveAspectRatio="none" style="width:334px;height:685px;background:#FFFFFF;" version="1.1" viewBox="0 0 334 685" width="334px" zoomAndPan="magnify"><defs><filter height="300%" id="fc61uxl8tihfq" width="300%" x="-1" y="-1"><feGaussianBlur result="blurOut" stdDeviation="2.0"/><feColorMatrix in="blurOut" result="blurOut2" type="matrix" values="0 0 0 0 0 0 0 0 0 0 0 0 0 0 0 0 0 0 .4 0"/><feOffset dx="4.0" dy="4.0" in="blurOut2" result="blurOut3"/><feBlend in="SourceGraphic" in2="blurOut3" mode="normal"/></filter></defs><g><rect fill="#DDDDDD" height="673.1172" style="stroke:#A80036;stroke-width:1.0;" width="217" x="16" y="6"/><text fill="#000000" font-family="sans-serif" font-size="13" font-weight="bold" lengthAdjust="spacing" textLength="84" x="82.5" y="18.0669">Application</text><rect fill="#FFFFFF" filter="url(#fc61uxl8tihfq)" height="75.3984" style="stroke:#000000;stroke-width:2.0;" width="199" x="121" y="90.4297"/><rect fill="#FFFFFF" filter="url(#fc61uxl8tihfq)" height="104.5313" style="stroke:#000000;stroke-width:2.0;" width="310" x="10" y="179.8281"/><rect fill="#FFFFFF" filter="url(#fc61uxl8tihfq)" height="104.5313" style="stroke:#000000;stroke-width:2.0;" width="310" x="10" y="298.3594"/><rect fill="#FFFFFF" filter="url(#fc61uxl8tihfq)" height="75.3984" style="stroke:#000000;stroke-width:2.0;" width="199" x="121" y="416.8906"/><rect fill="#FFFFFF" filter="url(#fc61uxl8tihfq)" height="104.5313" style="stroke:#000000;stroke-width:2.0;" width="310" x="10" y="506.2891"/><line style="stroke:#A80036;stroke-width:1.0;stroke-dasharray:5.0,5.0;" x1="70" x2="70" y1="73.4297" y2="627.8203"/><line style="stroke:#A80036;stroke-width:1.0;stroke-dasharray:5.0,5.0;" x1="180" x2="180" y1="73.4297" y2="627.8203"/><line style="stroke:#A80036;stroke-width:1.0;stroke-dasharray:5.0,5.0;" x1="274" x2="274" y1="73.4297" y2="627.8203"/><rect fill="#FEFECE" filter="url(#fc61uxl8tihfq)" height="30.2969" style="stroke:#A80036;stroke-width:1.5;" width="97" x="20" y="38.1328"/><text fill="#000000" font-family="sans-serif" font-size="14" lengthAdjust="spacing" textLength="83" x="27" y="58.1279">Application</text><rect fill="#FEFECE" filter="url(#fc61uxl8tihfq)" height="30.2969" style="stroke:#A80036;stroke-width:1.5;" width="97" x="20" y="626.8203"/><text fill="#000000" font-family="sans-serif" font-size="14" lengthAdjust="spacing" textLength="83" x="27" y="646.8154">Application</text><text fill="#000000" font-family="sans-serif" font-size="14" lengthAdjust="spacing" textLength="92" x="131" y="70.1279">TokenHolder</text><ellipse cx="180" cy="41.1328" fill="#FEFECE" filter="url(#fc61uxl8tihfq)" rx="12" ry="12" style="stroke:#A80036;stroke-width:2.0;"/><line style="stroke:#A80036;stroke-width:2.0;" x1="168" x2="192" y1="55.1328" y2="55.1328"/><text fill="#000000" font-family="sans-serif" font-size="14" lengthAdjust="spacing" textLength="92" x="131" y="639.8154">TokenHolder</text><ellipse cx="180" cy="659.1172" fill="#FEFECE" filter="url(#fc61uxl8tihfq)" rx="12" ry="12" style="stroke:#A80036;stroke-width:2.0;"/><line style="stroke:#A80036;stroke-width:2.0;" x1="168" x2="192" y1="673.1172" y2="673.1172"/><rect fill="#FEFECE" filter="url(#fc61uxl8tihfq)" height="30.2969" style="stroke:#A80036;stroke-width:1.5;" width="67" x="239" y="38.1328"/><text fill="#000000" font-family="sans-serif" font-size="14" lengthAdjust="spacing" textLength="53" x="246" y="58.1279">Service</text><rect fill="#FEFECE" filter="url(#fc61uxl8tihfq)" height="30.2969" style="stroke:#A80036;stroke-width:1.5;" width="67" x="239" y="626.8203"/><text fill="#000000" font-family="sans-serif" font-size="14" lengthAdjust="spacing" textLength="53" x="246" y="646.8154">Service</text><path d="M121,90.4297 L244,90.4297 L244,97.4297 L234,107.4297 L121,107.4297 L121,90.4297 " fill="#EEEEEE" style="stroke:#000000;stroke-width:1.0;"/><rect fill="none" height="75.3984" style="stroke:#000000;stroke-width:2.0;" width="199" x="121" y="90.4297"/><text fill="#000000" font-family="sans-serif" font-size="13" font-weight="bold" lengthAdjust="spacing" textLength="78" x="136" y="103.4966">Thread-bg</text><polygon fill="#A80036" points="262.5,124.6953,272.5,128.6953,262.5,132.6953,266.5,128.6953" style="stroke:#A80036;stroke-width:1.0;"/><line style="stroke:#A80036;stroke-width:1.0;" x1="180" x2="268.5" y1="128.6953" y2="128.6953"/><text fill="#000000" font-family="sans-serif" font-size="13" lengthAdjust="spacing" textLength="61" x="187" y="123.6294">get token</text><polygon fill="#A80036" points="191,153.8281,181,157.8281,191,161.8281,187,157.8281" style="stroke:#A80036;stroke-width:1.0;"/><line style="stroke:#A80036;stroke-width:1.0;stroke-dasharray:2.0,2.0;" x1="185" x2="273.5" y1="157.8281" y2="157.8281"/><text fill="#000000" font-family="sans-serif" font-size="13" lengthAdjust="spacing" textLength="44" x="197" y="152.7622">token1</text><path d="M10,179.8281 L124,179.8281 L124,186.8281 L114,196.8281 L10,196.8281 L10,179.8281 " fill="#EEEEEE" style="stroke:#000000;stroke-width:1.0;"/><rect fill="none" height="104.5313" style="stroke:#000000;stroke-width:2.0;" width="310" x="10" y="179.8281"/><text fill="#000000" font-family="sans-serif" font-size="13" font-weight="bold" lengthAdjust="spacing" textLength="69" x="25" y="192.895">Thread-1</text><polygon fill="#A80036" points="168,214.0938,178,218.0938,168,222.0938,172,218.0938" style="stroke:#A80036;stroke-width:1.0;"/><line style="stroke:#A80036;stroke-width:1.0;" x1="70.5" x2="174" y1="218.0938" y2="218.0938"/><text fill="#000000" font-family="sans-serif" font-size="13" lengthAdjust="spacing" textLength="61" x="77.5" y="213.0278">get token</text><polygon fill="#A80036" points="81.5,243.2266,71.5,247.2266,81.5,251.2266,77.5,247.2266" style="stroke:#A80036;stroke-width:1.0;"/><line style="stroke:#A80036;stroke-width:1.0;stroke-dasharray:2.0,2.0;" x1="75.5" x2="179" y1="247.2266" y2="247.2266"/><text fill="#000000" font-family="sans-serif" font-size="13" lengthAdjust="spacing" textLength="44" x="87.5" y="242.1606">token1</text><polygon fill="#A80036" points="262.5,272.3594,272.5,276.3594,262.5,280.3594,266.5,276.3594" style="stroke:#A80036;stroke-width:1.0;"/><line style="stroke:#A80036;stroke-width:1.0;" x1="70.5" x2="268.5" y1="276.3594" y2="276.3594"/><text fill="#000000" font-family="sans-serif" font-size="13" lengthAdjust="spacing" textLength="81" x="77.5" y="271.2935">call endpoint</text><path d="M10,298.3594 L124,298.3594 L124,305.3594 L114,315.3594 L10,315.3594 L10,298.3594 " fill="#EEEEEE" style="stroke:#000000;stroke-width:1.0;"/><rect fill="none" height="104.5313" style="stroke:#000000;stroke-width:2.0;" width="310" x="10" y="298.3594"/><text fill="#000000" font-family="sans-serif" font-size="13" font-weight="bold" lengthAdjust="spacing" textLength="69" x="25" y="311.4263">Thread-2</text><polygon fill="#A80036" points="168,332.625,178,336.625,168,340.625,172,336.625" style="stroke:#A80036;stroke-width:1.0;"/><line style="stroke:#A80036;stroke-width:1.0;" x1="70.5" x2="174" y1="336.625" y2="336.625"/><text fill="#000000" font-family="sans-serif" font-size="13" lengthAdjust="spacing" textLength="61" x="77.5" y="331.5591">get token</text><polygon fill="#A80036" points="81.5,361.7578,71.5,365.7578,81.5,369.7578,77.5,365.7578" style="stroke:#A80036;stroke-width:1.0;"/><line style="stroke:#A80036;stroke-width:1.0;stroke-dasharray:2.0,2.0;" x1="75.5" x2="179" y1="365.7578" y2="365.7578"/><text fill="#000000" font-family="sans-serif" font-size="13" lengthAdjust="spacing" textLength="44" x="87.5" y="360.6919">token1</text><polygon fill="#A80036" points="262.5,390.8906,272.5,394.8906,262.5,398.8906,266.5,394.8906" style="stroke:#A80036;stroke-width:1.0;"/><line style="stroke:#A80036;stroke-width:1.0;" x1="70.5" x2="268.5" y1="394.8906" y2="394.8906"/><text fill="#000000" font-family="sans-serif" font-size="13" lengthAdjust="spacing" textLength="81" x="77.5" y="389.8247">call endpoint</text><path d="M121,416.8906 L244,416.8906 L244,423.8906 L234,433.8906 L121,433.8906 L121,416.8906 " fill="#EEEEEE" style="stroke:#000000;stroke-width:1.0;"/><rect fill="none" height="75.3984" style="stroke:#000000;stroke-width:2.0;" width="199" x="121" y="416.8906"/><text fill="#000000" font-family="sans-serif" font-size="13" font-weight="bold" lengthAdjust="spacing" textLength="78" x="136" y="429.9575">Thread-bg</text><polygon fill="#A80036" points="262.5,451.1563,272.5,455.1563,262.5,459.1563,266.5,455.1563" style="stroke:#A80036;stroke-width:1.0;"/><line style="stroke:#A80036;stroke-width:1.0;" x1="180" x2="268.5" y1="455.1563" y2="455.1563"/><text fill="#000000" font-family="sans-serif" font-size="13" lengthAdjust="spacing" textLength="61" x="187" y="450.0903">get token</text><polygon fill="#A80036" points="191,480.2891,181,484.2891,191,488.2891,187,484.2891" style="stroke:#A80036;stroke-width:1.0;"/><line style="stroke:#A80036;stroke-width:1.0;stroke-dasharray:2.0,2.0;" x1="185" x2="273.5" y1="484.2891" y2="484.2891"/><text fill="#000000" font-family="sans-serif" font-size="13" lengthAdjust="spacing" textLength="44" x="197" y="479.2231">token2</text><path d="M10,506.2891 L124,506.2891 L124,513.2891 L114,523.2891 L10,523.2891 L10,506.2891 " fill="#EEEEEE" style="stroke:#000000;stroke-width:1.0;"/><rect fill="none" height="104.5313" style="stroke:#000000;stroke-width:2.0;" width="310" x="10" y="506.2891"/><text fill="#000000" font-family="sans-serif" font-size="13" font-weight="bold" lengthAdjust="spacing" textLength="69" x="25" y="519.356">Thread-1</text><polygon fill="#A80036" points="168,540.5547,178,544.5547,168,548.5547,172,544.5547" style="stroke:#A80036;stroke-width:1.0;"/><line style="stroke:#A80036;stroke-width:1.0;" x1="70.5" x2="174" y1="544.5547" y2="544.5547"/><text fill="#000000" font-family="sans-serif" font-size="13" lengthAdjust="spacing" textLength="61" x="77.5" y="539.4888">get token</text><polygon fill="#A80036" points="81.5,569.6875,71.5,573.6875,81.5,577.6875,77.5,573.6875" style="stroke:#A80036;stroke-width:1.0;"/><line style="stroke:#A80036;stroke-width:1.0;stroke-dasharray:2.0,2.0;" x1="75.5" x2="179" y1="573.6875" y2="573.6875"/><text fill="#000000" font-family="sans-serif" font-size="13" lengthAdjust="spacing" textLength="44" x="87.5" y="568.6216">token2</text><polygon fill="#A80036" points="262.5,598.8203,272.5,602.8203,262.5,606.8203,266.5,602.8203" style="stroke:#A80036;stroke-width:1.0;"/><line style="stroke:#A80036;stroke-width:1.0;" x1="70.5" x2="268.5" y1="602.8203" y2="602.8203"/><text fill="#000000" font-family="sans-serif" font-size="13" lengthAdjust="spacing" textLength="81" x="77.5" y="597.7544">call endpoint</text><!--MD5=[57b10cd4d0b091a4c06e1958e2d1c621]
@startuml
box "Application"
participant Application AS app
entity "TokenHolder" AS th
end box
participant "Service" AS s

group Thread-bg
th -> s: get token
s - -> th: token1
end

group Thread-1
app -> th: get token
th - -> app: token1
app -> s: call endpoint
end

group Thread-2
app -> th: get token
th - -> app: token1
app -> s: call endpoint
end

group Thread-bg
th -> s: get token
s - -> th: token2
end

group Thread-1
app -> th: get token
th - -> app: token2
app -> s: call endpoint
end
@enduml

PlantUML version 1.2021.9beta2(Unknown compile time)
(GPL source distribution)
Java Runtime: Java(TM) SE Runtime Environment
JVM: Java HotSpot(TM) 64-Bit Server VM
Default Encoding: UTF-8
Language: en
Country: US
--></g></svg>