<?xml version="1.0" encoding="UTF-8" standalone="no"?><svg xmlns="http://www.w3.org/2000/svg" xmlns:xlink="http://www.w3.org/1999/xlink" contentScriptType="application/ecmascript" contentStyleType="text/css" height="94px" preserveAspectRatio="none" style="width:480px;height:94px;background:#FFFFFF;" version="1.1" viewBox="0 0 480 94" width="480px" zoomAndPan="magnify"><defs><filter height="300%" id="f1mluultjlhcv2" width="300%" x="-1" y="-1"><feGaussianBlur result="blurOut" stdDeviation="2.0"/><feColorMatrix in="blurOut" result="blurOut2" type="matrix" values="0 0 0 0 0 0 0 0 0 0 0 0 0 0 0 0 0 0 .4 0"/><feOffset dx="4.0" dy="4.0" in="blurOut2" result="blurOut3"/><feBlend in="SourceGraphic" in2="blurOut3" mode="normal"/></filter></defs><g><!--MD5=[f8575979d25025e844f82be73954e1d6]
class TokenHolder--><rect codeLine="1" fill="#FEFECE" filter="url(#f1mluultjlhcv2)" height="73.6094" id="TokenHolder" style="stroke:#A80036;stroke-width:1.5;" width="172" x="7" y="7"/><ellipse cx="51.25" cy="23" fill="#B4A7E5" rx="11" ry="11" style="stroke:#A80036;stroke-width:1.0;"/><path d="M52.2031,19.7813 L53.9219,19.7813 C54.3125,19.7813 54.5,19.75 54.625,19.6719 C54.8906,19.5156 55.0313,19.2344 55.0313,18.9375 C55.0313,18.6719 54.9219,18.4063 54.6875,18.2344 C54.5156,18.125 54.375,18.0938 53.9219,18.0938 L48.7813,18.0938 C48.3438,18.0938 48.2188,18.1094 48.0625,18.2031 C47.8125,18.3594 47.6563,18.6563 47.6563,18.9375 C47.6563,19.2188 47.7969,19.4688 48.0156,19.6406 C48.1719,19.75 48.3594,19.7813 48.7813,19.7813 L50.5,19.7813 L50.5,26.2969 L48.7813,26.2969 C48.3438,26.2969 48.2188,26.3125 48.0625,26.4219 C47.8125,26.5781 47.6563,26.8594 47.6563,27.1563 C47.6563,27.4063 47.7969,27.6719 48.0156,27.8281 C48.1719,27.9531 48.375,28 48.7813,28 L53.9219,28 C54.6719,28 55.0313,27.7188 55.0313,27.1563 C55.0313,26.875 54.9219,26.625 54.6875,26.4531 C54.5156,26.3281 54.375,26.2969 53.9219,26.2969 L52.2031,26.2969 L52.2031,19.7813 Z " fill="#000000"/><text fill="#000000" font-family="sans-serif" font-size="12" font-style="italic" lengthAdjust="spacing" textLength="75" x="71.75" y="27.1543">TokenHolder</text><line style="stroke:#A80036;stroke-width:1.5;" x1="8" x2="178" y1="39" y2="39"/><line style="stroke:#A80036;stroke-width:1.5;" x1="8" x2="178" y1="47" y2="47"/><text fill="#000000" font-family="sans-serif" font-size="11" lengthAdjust="spacing" textLength="99" x="13" y="61.2104">String getToken()</text><text fill="#000000" font-family="sans-serif" font-size="11" lengthAdjust="spacing" textLength="160" x="13" y="74.0151">void invalidateToken(String)</text><path d="M214.5,24 L214.5,40 L179.426,44 L214.5,48 L214.5,64.2656 A0,0 0 0 0 214.5,64.2656 L471.5,64.2656 A0,0 0 0 0 471.5,64.2656 L471.5,34 L461.5,24 L214.5,24 A0,0 0 0 0 214.5,24 " fill="#FBFB77" filter="url(#f1mluultjlhcv2)" style="stroke:#A80036;stroke-width:1.0;"/><path d="M461.5,24 L461.5,34 L471.5,34 L461.5,24 " fill="#FBFB77" style="stroke:#A80036;stroke-width:1.0;"/><text fill="#000000" font-family="sans-serif" font-size="13" lengthAdjust="spacing" textLength="172" x="220.5" y="41.0669">It should store single token</text><text fill="#000000" font-family="sans-serif" font-size="13" lengthAdjust="spacing" textLength="236" x="220.5" y="56.1997">and generate/renew it in background</text><!--MD5=[d493a7602a0175c9702febca07bac715]
@startuml
interface TokenHolder {
  String getToken()
  void invalidateToken(String)
}
note right of TokenHolder: It should store single token \nand generate/renew it in background
@enduml

PlantUML version 1.2021.9beta2(Unknown compile time)
(GPL source distribution)
Java Runtime: Java(TM) SE Runtime Environment
JVM: Java HotSpot(TM) 64-Bit Server VM
Default Encoding: UTF-8
Language: en
Country: US
--></g></svg>