<?xml version="1.0" encoding="UTF-8" standalone="no"?><svg xmlns="http://www.w3.org/2000/svg" xmlns:xlink="http://www.w3.org/1999/xlink" contentScriptType="application/ecmascript" contentStyleType="text/css" height="577px" preserveAspectRatio="none" style="width:334px;height:577px;background:#FFFFFF;" version="1.1" viewBox="0 0 334 577" width="334px" zoomAndPan="magnify"><defs><filter height="300%" id="figj100vhgmq1" width="300%" x="-1" y="-1"><feGaussianBlur result="blurOut" stdDeviation="2.0"/><feColorMatrix in="blurOut" result="blurOut2" type="matrix" values="0 0 0 0 0 0 0 0 0 0 0 0 0 0 0 0 0 0 .4 0"/><feOffset dx="4.0" dy="4.0" in="blurOut2" result="blurOut3"/><feBlend in="SourceGraphic" in2="blurOut3" mode="normal"/></filter></defs><g><rect fill="#FFFFFF" filter="url(#figj100vhgmq1)" height="104.5313" style="stroke:#000000;stroke-width:2.0;" width="217.5" x="10" y="57.2969"/><rect fill="#FFFFFF" filter="url(#figj100vhgmq1)" height="104.5313" style="stroke:#000000;stroke-width:2.0;" width="217.5" x="10" y="175.8281"/><rect fill="#FFFFFF" filter="url(#figj100vhgmq1)" height="104.5313" style="stroke:#000000;stroke-width:2.0;" width="310.5" x="10" y="294.3594"/><rect fill="#FFFFFF" filter="url(#figj100vhgmq1)" height="104.5313" style="stroke:#000000;stroke-width:2.0;" width="310.5" x="10" y="412.8906"/><line style="stroke:#A80036;stroke-width:1.0;stroke-dasharray:5.0,5.0;" x1="70" x2="70" y1="40.2969" y2="534.4219"/><line style="stroke:#A80036;stroke-width:1.0;stroke-dasharray:5.0,5.0;" x1="175.5" x2="175.5" y1="40.2969" y2="534.4219"/><line style="stroke:#A80036;stroke-width:1.0;stroke-dasharray:5.0,5.0;" x1="268.5" x2="268.5" y1="40.2969" y2="534.4219"/><rect fill="#FEFECE" filter="url(#figj100vhgmq1)" height="30.2969" style="stroke:#A80036;stroke-width:1.5;" width="97" x="20" y="5"/><text fill="#000000" font-family="sans-serif" font-size="14" lengthAdjust="spacing" textLength="83" x="27" y="24.9951">Application</text><rect fill="#FEFECE" filter="url(#figj100vhgmq1)" height="30.2969" style="stroke:#A80036;stroke-width:1.5;" width="97" x="20" y="533.4219"/><text fill="#000000" font-family="sans-serif" font-size="14" lengthAdjust="spacing" textLength="83" x="27" y="553.417">Application</text><rect fill="#FEFECE" filter="url(#figj100vhgmq1)" height="30.2969" style="stroke:#A80036;stroke-width:1.5;" width="80" x="133.5" y="5"/><text fill="#000000" font-family="sans-serif" font-size="14" lengthAdjust="spacing" textLength="66" x="140.5" y="24.9951">Service 1</text><rect fill="#FEFECE" filter="url(#figj100vhgmq1)" height="30.2969" style="stroke:#A80036;stroke-width:1.5;" width="80" x="133.5" y="533.4219"/><text fill="#000000" font-family="sans-serif" font-size="14" lengthAdjust="spacing" textLength="66" x="140.5" y="553.417">Service 1</text><rect fill="#FEFECE" filter="url(#figj100vhgmq1)" height="30.2969" style="stroke:#A80036;stroke-width:1.5;" width="79" x="227.5" y="5"/><text fill="#000000" font-family="sans-serif" font-size="14" lengthAdjust="spacing" textLength="65" x="234.5" y="24.9951">Service 2</text><rect fill="#FEFECE" filter="url(#figj100vhgmq1)" height="30.2969" style="stroke:#A80036;stroke-width:1.5;" width="79" x="227.5" y="533.4219"/><text fill="#000000" font-family="sans-serif" font-size="14" lengthAdjust="spacing" textLength="65" x="234.5" y="553.417">Service 2</text><path d="M10,57.2969 L124,57.2969 L124,64.2969 L114,74.2969 L10,74.2969 L10,57.2969 " fill="#EEEEEE" style="stroke:#000000;stroke-width:1.0;"/><rect fill="none" height="104.5313" style="stroke:#000000;stroke-width:2.0;" width="217.5" x="10" y="57.2969"/><text fill="#000000" font-family="sans-serif" font-size="13" font-weight="bold" lengthAdjust="spacing" textLength="69" x="25" y="70.3638">Thread-1</text><polygon fill="#A80036" points="163.5,91.5625,173.5,95.5625,163.5,99.5625,167.5,95.5625" style="stroke:#A80036;stroke-width:1.0;"/><line style="stroke:#A80036;stroke-width:1.0;" x1="70.5" x2="169.5" y1="95.5625" y2="95.5625"/><text fill="#000000" font-family="sans-serif" font-size="13" lengthAdjust="spacing" textLength="61" x="77.5" y="90.4966">get token</text><polygon fill="#A80036" points="81.5,120.6953,71.5,124.6953,81.5,128.6953,77.5,124.6953" style="stroke:#A80036;stroke-width:1.0;"/><line style="stroke:#A80036;stroke-width:1.0;stroke-dasharray:2.0,2.0;" x1="75.5" x2="174.5" y1="124.6953" y2="124.6953"/><text fill="#000000" font-family="sans-serif" font-size="13" lengthAdjust="spacing" textLength="36" x="87.5" y="119.6294">token</text><polygon fill="#A80036" points="163.5,149.8281,173.5,153.8281,163.5,157.8281,167.5,153.8281" style="stroke:#A80036;stroke-width:1.0;"/><line style="stroke:#A80036;stroke-width:1.0;" x1="70.5" x2="169.5" y1="153.8281" y2="153.8281"/><text fill="#000000" font-family="sans-serif" font-size="13" lengthAdjust="spacing" textLength="81" x="77.5" y="148.7622">call endpoint</text><path d="M10,175.8281 L124,175.8281 L124,182.8281 L114,192.8281 L10,192.8281 L10,175.8281 " fill="#EEEEEE" style="stroke:#000000;stroke-width:1.0;"/><rect fill="none" height="104.5313" style="stroke:#000000;stroke-width:2.0;" width="217.5" x="10" y="175.8281"/><text fill="#000000" font-family="sans-serif" font-size="13" font-weight="bold" lengthAdjust="spacing" textLength="69" x="25" y="188.895">Thread-2</text><polygon fill="#A80036" points="163.5,210.0938,173.5,214.0938,163.5,218.0938,167.5,214.0938" style="stroke:#A80036;stroke-width:1.0;"/><line style="stroke:#A80036;stroke-width:1.0;" x1="70.5" x2="169.5" y1="214.0938" y2="214.0938"/><text fill="#000000" font-family="sans-serif" font-size="13" lengthAdjust="spacing" textLength="61" x="77.5" y="209.0278">get token</text><polygon fill="#A80036" points="81.5,239.2266,71.5,243.2266,81.5,247.2266,77.5,243.2266" style="stroke:#A80036;stroke-width:1.0;"/><line style="stroke:#A80036;stroke-width:1.0;stroke-dasharray:2.0,2.0;" x1="75.5" x2="174.5" y1="243.2266" y2="243.2266"/><text fill="#000000" font-family="sans-serif" font-size="13" lengthAdjust="spacing" textLength="36" x="87.5" y="238.1606">token</text><polygon fill="#A80036" points="163.5,268.3594,173.5,272.3594,163.5,276.3594,167.5,272.3594" style="stroke:#A80036;stroke-width:1.0;"/><line style="stroke:#A80036;stroke-width:1.0;" x1="70.5" x2="169.5" y1="272.3594" y2="272.3594"/><text fill="#000000" font-family="sans-serif" font-size="13" lengthAdjust="spacing" textLength="81" x="77.5" y="267.2935">call endpoint</text><path d="M10,294.3594 L124,294.3594 L124,301.3594 L114,311.3594 L10,311.3594 L10,294.3594 " fill="#EEEEEE" style="stroke:#000000;stroke-width:1.0;"/><rect fill="none" height="104.5313" style="stroke:#000000;stroke-width:2.0;" width="310.5" x="10" y="294.3594"/><text fill="#000000" font-family="sans-serif" font-size="13" font-weight="bold" lengthAdjust="spacing" textLength="69" x="25" y="307.4263">Thread-1</text><polygon fill="#A80036" points="257,328.625,267,332.625,257,336.625,261,332.625" style="stroke:#A80036;stroke-width:1.0;"/><line style="stroke:#A80036;stroke-width:1.0;" x1="70.5" x2="263" y1="332.625" y2="332.625"/><text fill="#000000" font-family="sans-serif" font-size="13" lengthAdjust="spacing" textLength="61" x="77.5" y="327.5591">get token</text><polygon fill="#A80036" points="81.5,357.7578,71.5,361.7578,81.5,365.7578,77.5,361.7578" style="stroke:#A80036;stroke-width:1.0;"/><line style="stroke:#A80036;stroke-width:1.0;stroke-dasharray:2.0,2.0;" x1="75.5" x2="268" y1="361.7578" y2="361.7578"/><text fill="#000000" font-family="sans-serif" font-size="13" lengthAdjust="spacing" textLength="36" x="87.5" y="356.6919">token</text><polygon fill="#A80036" points="257,386.8906,267,390.8906,257,394.8906,261,390.8906" style="stroke:#A80036;stroke-width:1.0;"/><line style="stroke:#A80036;stroke-width:1.0;" x1="70.5" x2="263" y1="390.8906" y2="390.8906"/><text fill="#000000" font-family="sans-serif" font-size="13" lengthAdjust="spacing" textLength="81" x="77.5" y="385.8247">call endpoint</text><path d="M10,412.8906 L124,412.8906 L124,419.8906 L114,429.8906 L10,429.8906 L10,412.8906 " fill="#EEEEEE" style="stroke:#000000;stroke-width:1.0;"/><rect fill="none" height="104.5313" style="stroke:#000000;stroke-width:2.0;" width="310.5" x="10" y="412.8906"/><text fill="#000000" font-family="sans-serif" font-size="13" font-weight="bold" lengthAdjust="spacing" textLength="69" x="25" y="425.9575">Thread-2</text><polygon fill="#A80036" points="257,447.1563,267,451.1563,257,455.1563,261,451.1563" style="stroke:#A80036;stroke-width:1.0;"/><line style="stroke:#A80036;stroke-width:1.0;" x1="70.5" x2="263" y1="451.1563" y2="451.1563"/><text fill="#000000" font-family="sans-serif" font-size="13" lengthAdjust="spacing" textLength="61" x="77.5" y="446.0903">get token</text><polygon fill="#A80036" points="81.5,476.2891,71.5,480.2891,81.5,484.2891,77.5,480.2891" style="stroke:#A80036;stroke-width:1.0;"/><line style="stroke:#A80036;stroke-width:1.0;stroke-dasharray:2.0,2.0;" x1="75.5" x2="268" y1="480.2891" y2="480.2891"/><text fill="#000000" font-family="sans-serif" font-size="13" lengthAdjust="spacing" textLength="36" x="87.5" y="475.2231">token</text><polygon fill="#A80036" points="257,505.4219,267,509.4219,257,513.4219,261,509.4219" style="stroke:#A80036;stroke-width:1.0;"/><line style="stroke:#A80036;stroke-width:1.0;" x1="70.5" x2="263" y1="509.4219" y2="509.4219"/><text fill="#000000" font-family="sans-serif" font-size="13" lengthAdjust="spacing" textLength="81" x="77.5" y="504.356">call endpoint</text><!--MD5=[fa4b6cc2864511b873e609ef0ffb8771]
@startuml
participant Application AS app
participant "Service 1" AS s1
participant "Service 2" AS s2

group Thread-1
app -> s1: get token
s1 - -> app: token

app -> s1: call endpoint
end

group Thread-2
app -> s1: get token
s1 - -> app: token

app -> s1: call endpoint
end

group Thread-1
app -> s2: get token
s2 - -> app: token

app -> s2: call endpoint
end

group Thread-2
app -> s2: get token
s2 - -> app: token

app -> s2: call endpoint
end
@enduml

PlantUML version 1.2021.6beta6(Unknown compile time)
(GPL source distribution)
Java Runtime: Java(TM) SE Runtime Environment
JVM: Java HotSpot(TM) 64-Bit Server VM
Default Encoding: UTF-8
Language: en
Country: US
--></g></svg>