<?xml version="1.0" encoding="UTF-8" standalone="no"?><svg xmlns="http://www.w3.org/2000/svg" xmlns:xlink="http://www.w3.org/1999/xlink" contentScriptType="application/ecmascript" contentStyleType="text/css" height="741px" preserveAspectRatio="none" style="width:440px;height:741px;background:#FFFFFF;" version="1.1" viewBox="0 0 440 741" width="440px" zoomAndPan="magnify"><defs><filter height="300%" id="f1qb9u3su57mz3" width="300%" x="-1" y="-1"><feGaussianBlur result="blurOut" stdDeviation="2.0"/><feColorMatrix in="blurOut" result="blurOut2" type="matrix" values="0 0 0 0 0 0 0 0 0 0 0 0 0 0 0 0 0 0 .4 0"/><feOffset dx="4.0" dy="4.0" in="blurOut2" result="blurOut3"/><feBlend in="SourceGraphic" in2="blurOut3" mode="normal"/></filter></defs><g><rect fill="#DDDDDD" height="729.3828" style="stroke:#A80036;stroke-width:1.0;" width="217" x="16" y="6"/><text fill="#000000" font-family="sans-serif" font-size="13" font-weight="bold" lengthAdjust="spacing" textLength="84" x="82.5" y="18.0669">Application</text><rect fill="#FFFFFF" filter="url(#f1qb9u3su57mz3)" height="162.7969" style="stroke:#000000;stroke-width:2.0;" width="323" x="10" y="90.4297"/><rect fill="#FFFFFF" filter="url(#f1qb9u3su57mz3)" height="104.5313" style="stroke:#000000;stroke-width:2.0;" width="323" x="10" y="267.2266"/><rect fill="#FFFFFF" filter="url(#f1qb9u3su57mz3)" height="162.7969" style="stroke:#000000;stroke-width:2.0;" width="416" x="10" y="385.7578"/><rect fill="#FFFFFF" filter="url(#f1qb9u3su57mz3)" height="104.5313" style="stroke:#000000;stroke-width:2.0;" width="416" x="10" y="562.5547"/><line style="stroke:#A80036;stroke-width:1.0;stroke-dasharray:5.0,5.0;" x1="70" x2="70" y1="73.4297" y2="684.0859"/><line style="stroke:#A80036;stroke-width:1.0;stroke-dasharray:5.0,5.0;" x1="180" x2="180" y1="73.4297" y2="684.0859"/><line style="stroke:#A80036;stroke-width:1.0;stroke-dasharray:5.0,5.0;" x1="281" x2="281" y1="73.4297" y2="684.0859"/><line style="stroke:#A80036;stroke-width:1.0;stroke-dasharray:5.0,5.0;" x1="374" x2="374" y1="73.4297" y2="684.0859"/><rect fill="#FEFECE" filter="url(#f1qb9u3su57mz3)" height="30.2969" style="stroke:#A80036;stroke-width:1.5;" width="97" x="20" y="38.1328"/><text fill="#000000" font-family="sans-serif" font-size="14" lengthAdjust="spacing" textLength="83" x="27" y="58.1279">Application</text><rect fill="#FEFECE" filter="url(#f1qb9u3su57mz3)" height="30.2969" style="stroke:#A80036;stroke-width:1.5;" width="97" x="20" y="683.0859"/><text fill="#000000" font-family="sans-serif" font-size="14" lengthAdjust="spacing" textLength="83" x="27" y="703.0811">Application</text><text fill="#000000" font-family="sans-serif" font-size="14" lengthAdjust="spacing" textLength="92" x="131" y="70.1279">TokenHolder</text><ellipse cx="180" cy="41.1328" fill="#FEFECE" filter="url(#f1qb9u3su57mz3)" rx="12" ry="12" style="stroke:#A80036;stroke-width:2.0;"/><line style="stroke:#A80036;stroke-width:2.0;" x1="168" x2="192" y1="55.1328" y2="55.1328"/><text fill="#000000" font-family="sans-serif" font-size="14" lengthAdjust="spacing" textLength="92" x="131" y="696.0811">TokenHolder</text><ellipse cx="180" cy="715.3828" fill="#FEFECE" filter="url(#f1qb9u3su57mz3)" rx="12" ry="12" style="stroke:#A80036;stroke-width:2.0;"/><line style="stroke:#A80036;stroke-width:2.0;" x1="168" x2="192" y1="729.3828" y2="729.3828"/><rect fill="#FEFECE" filter="url(#f1qb9u3su57mz3)" height="30.2969" style="stroke:#A80036;stroke-width:1.5;" width="80" x="239" y="38.1328"/><text fill="#000000" font-family="sans-serif" font-size="14" lengthAdjust="spacing" textLength="66" x="246" y="58.1279">Service 1</text><rect fill="#FEFECE" filter="url(#f1qb9u3su57mz3)" height="30.2969" style="stroke:#A80036;stroke-width:1.5;" width="80" x="239" y="683.0859"/><text fill="#000000" font-family="sans-serif" font-size="14" lengthAdjust="spacing" textLength="66" x="246" y="703.0811">Service 1</text><rect fill="#FEFECE" filter="url(#f1qb9u3su57mz3)" height="30.2969" style="stroke:#A80036;stroke-width:1.5;" width="79" x="333" y="38.1328"/><text fill="#000000" font-family="sans-serif" font-size="14" lengthAdjust="spacing" textLength="65" x="340" y="58.1279">Service 2</text><rect fill="#FEFECE" filter="url(#f1qb9u3su57mz3)" height="30.2969" style="stroke:#A80036;stroke-width:1.5;" width="79" x="333" y="683.0859"/><text fill="#000000" font-family="sans-serif" font-size="14" lengthAdjust="spacing" textLength="65" x="340" y="703.0811">Service 2</text><path d="M10,90.4297 L124,90.4297 L124,97.4297 L114,107.4297 L10,107.4297 L10,90.4297 " fill="#EEEEEE" style="stroke:#000000;stroke-width:1.0;"/><rect fill="none" height="162.7969" style="stroke:#000000;stroke-width:2.0;" width="323" x="10" y="90.4297"/><text fill="#000000" font-family="sans-serif" font-size="13" font-weight="bold" lengthAdjust="spacing" textLength="69" x="25" y="103.4966">Thread-1</text><polygon fill="#A80036" points="168,124.6953,178,128.6953,168,132.6953,172,128.6953" style="stroke:#A80036;stroke-width:1.0;"/><line style="stroke:#A80036;stroke-width:1.0;" x1="70.5" x2="174" y1="128.6953" y2="128.6953"/><text fill="#000000" font-family="sans-serif" font-size="13" lengthAdjust="spacing" textLength="61" x="77.5" y="123.6294">get token</text><polygon fill="#A80036" points="269,153.8281,279,157.8281,269,161.8281,273,157.8281" style="stroke:#A80036;stroke-width:1.0;"/><line style="stroke:#A80036;stroke-width:1.0;" x1="180" x2="275" y1="157.8281" y2="157.8281"/><text fill="#000000" font-family="sans-serif" font-size="13" lengthAdjust="spacing" textLength="61" x="187" y="152.7622">get token</text><polygon fill="#A80036" points="191,182.9609,181,186.9609,191,190.9609,187,186.9609" style="stroke:#A80036;stroke-width:1.0;"/><line style="stroke:#A80036;stroke-width:1.0;stroke-dasharray:2.0,2.0;" x1="185" x2="280" y1="186.9609" y2="186.9609"/><text fill="#000000" font-family="sans-serif" font-size="13" lengthAdjust="spacing" textLength="36" x="197" y="181.895">token</text><polygon fill="#A80036" points="81.5,212.0938,71.5,216.0938,81.5,220.0938,77.5,216.0938" style="stroke:#A80036;stroke-width:1.0;"/><line style="stroke:#A80036;stroke-width:1.0;stroke-dasharray:2.0,2.0;" x1="75.5" x2="179" y1="216.0938" y2="216.0938"/><text fill="#000000" font-family="sans-serif" font-size="13" lengthAdjust="spacing" textLength="36" x="87.5" y="211.0278">token</text><polygon fill="#A80036" points="269,241.2266,279,245.2266,269,249.2266,273,245.2266" style="stroke:#A80036;stroke-width:1.0;"/><line style="stroke:#A80036;stroke-width:1.0;" x1="70.5" x2="275" y1="245.2266" y2="245.2266"/><text fill="#000000" font-family="sans-serif" font-size="13" lengthAdjust="spacing" textLength="81" x="77.5" y="240.1606">call endpoint</text><path d="M10,267.2266 L124,267.2266 L124,274.2266 L114,284.2266 L10,284.2266 L10,267.2266 " fill="#EEEEEE" style="stroke:#000000;stroke-width:1.0;"/><rect fill="none" height="104.5313" style="stroke:#000000;stroke-width:2.0;" width="323" x="10" y="267.2266"/><text fill="#000000" font-family="sans-serif" font-size="13" font-weight="bold" lengthAdjust="spacing" textLength="69" x="25" y="280.2935">Thread-2</text><polygon fill="#A80036" points="168,301.4922,178,305.4922,168,309.4922,172,305.4922" style="stroke:#A80036;stroke-width:1.0;"/><line style="stroke:#A80036;stroke-width:1.0;" x1="70.5" x2="174" y1="305.4922" y2="305.4922"/><text fill="#000000" font-family="sans-serif" font-size="13" lengthAdjust="spacing" textLength="61" x="77.5" y="300.4263">get token</text><polygon fill="#A80036" points="81.5,330.625,71.5,334.625,81.5,338.625,77.5,334.625" style="stroke:#A80036;stroke-width:1.0;"/><line style="stroke:#A80036;stroke-width:1.0;stroke-dasharray:2.0,2.0;" x1="75.5" x2="179" y1="334.625" y2="334.625"/><text fill="#000000" font-family="sans-serif" font-size="13" lengthAdjust="spacing" textLength="36" x="87.5" y="329.5591">token</text><polygon fill="#A80036" points="269,359.7578,279,363.7578,269,367.7578,273,363.7578" style="stroke:#A80036;stroke-width:1.0;"/><line style="stroke:#A80036;stroke-width:1.0;" x1="70.5" x2="275" y1="363.7578" y2="363.7578"/><text fill="#000000" font-family="sans-serif" font-size="13" lengthAdjust="spacing" textLength="81" x="77.5" y="358.6919">call endpoint</text><path d="M10,385.7578 L124,385.7578 L124,392.7578 L114,402.7578 L10,402.7578 L10,385.7578 " fill="#EEEEEE" style="stroke:#000000;stroke-width:1.0;"/><rect fill="none" height="162.7969" style="stroke:#000000;stroke-width:2.0;" width="416" x="10" y="385.7578"/><text fill="#000000" font-family="sans-serif" font-size="13" font-weight="bold" lengthAdjust="spacing" textLength="69" x="25" y="398.8247">Thread-1</text><polygon fill="#A80036" points="168,420.0234,178,424.0234,168,428.0234,172,424.0234" style="stroke:#A80036;stroke-width:1.0;"/><line style="stroke:#A80036;stroke-width:1.0;" x1="70.5" x2="174" y1="424.0234" y2="424.0234"/><text fill="#000000" font-family="sans-serif" font-size="13" lengthAdjust="spacing" textLength="61" x="77.5" y="418.9575">get token</text><polygon fill="#A80036" points="362.5,449.1563,372.5,453.1563,362.5,457.1563,366.5,453.1563" style="stroke:#A80036;stroke-width:1.0;"/><line style="stroke:#A80036;stroke-width:1.0;" x1="180" x2="368.5" y1="453.1563" y2="453.1563"/><text fill="#000000" font-family="sans-serif" font-size="13" lengthAdjust="spacing" textLength="61" x="187" y="448.0903">get token</text><polygon fill="#A80036" points="191,478.2891,181,482.2891,191,486.2891,187,482.2891" style="stroke:#A80036;stroke-width:1.0;"/><line style="stroke:#A80036;stroke-width:1.0;stroke-dasharray:2.0,2.0;" x1="185" x2="373.5" y1="482.2891" y2="482.2891"/><text fill="#000000" font-family="sans-serif" font-size="13" lengthAdjust="spacing" textLength="36" x="197" y="477.2231">token</text><polygon fill="#A80036" points="81.5,507.4219,71.5,511.4219,81.5,515.4219,77.5,511.4219" style="stroke:#A80036;stroke-width:1.0;"/><line style="stroke:#A80036;stroke-width:1.0;stroke-dasharray:2.0,2.0;" x1="75.5" x2="179" y1="511.4219" y2="511.4219"/><text fill="#000000" font-family="sans-serif" font-size="13" lengthAdjust="spacing" textLength="36" x="87.5" y="506.356">token</text><polygon fill="#A80036" points="362.5,536.5547,372.5,540.5547,362.5,544.5547,366.5,540.5547" style="stroke:#A80036;stroke-width:1.0;"/><line style="stroke:#A80036;stroke-width:1.0;" x1="70.5" x2="368.5" y1="540.5547" y2="540.5547"/><text fill="#000000" font-family="sans-serif" font-size="13" lengthAdjust="spacing" textLength="81" x="77.5" y="535.4888">call endpoint</text><path d="M10,562.5547 L124,562.5547 L124,569.5547 L114,579.5547 L10,579.5547 L10,562.5547 " fill="#EEEEEE" style="stroke:#000000;stroke-width:1.0;"/><rect fill="none" height="104.5313" style="stroke:#000000;stroke-width:2.0;" width="416" x="10" y="562.5547"/><text fill="#000000" font-family="sans-serif" font-size="13" font-weight="bold" lengthAdjust="spacing" textLength="69" x="25" y="575.6216">Thread-2</text><polygon fill="#A80036" points="168,596.8203,178,600.8203,168,604.8203,172,600.8203" style="stroke:#A80036;stroke-width:1.0;"/><line style="stroke:#A80036;stroke-width:1.0;" x1="70.5" x2="174" y1="600.8203" y2="600.8203"/><text fill="#000000" font-family="sans-serif" font-size="13" lengthAdjust="spacing" textLength="61" x="77.5" y="595.7544">get token</text><polygon fill="#A80036" points="81.5,625.9531,71.5,629.9531,81.5,633.9531,77.5,629.9531" style="stroke:#A80036;stroke-width:1.0;"/><line style="stroke:#A80036;stroke-width:1.0;stroke-dasharray:2.0,2.0;" x1="75.5" x2="179" y1="629.9531" y2="629.9531"/><text fill="#000000" font-family="sans-serif" font-size="13" lengthAdjust="spacing" textLength="36" x="87.5" y="624.8872">token</text><polygon fill="#A80036" points="362.5,655.0859,372.5,659.0859,362.5,663.0859,366.5,659.0859" style="stroke:#A80036;stroke-width:1.0;"/><line style="stroke:#A80036;stroke-width:1.0;" x1="70.5" x2="368.5" y1="659.0859" y2="659.0859"/><text fill="#000000" font-family="sans-serif" font-size="13" lengthAdjust="spacing" textLength="81" x="77.5" y="654.02">call endpoint</text><!--MD5=[547748a4b00a5fb1a59e9bf2689cfa2e]
@startuml
box "Application"
participant Application AS app
entity "TokenHolder" AS th
end box
participant "Service 1" AS s1
participant "Service 2" AS s2

group Thread-1
app -> th: get token
th -> s1: get token
s1 - -> th: token
th - -> app: token

app -> s1: call endpoint
end

group Thread-2
app -> th: get token
th - -> app: token

app -> s1: call endpoint
end

group Thread-1
app -> th: get token
th -> s2: get token
s2 - -> th: token
th - -> app: token

app -> s2: call endpoint
end

group Thread-2
app -> th: get token
th - -> app: token

app -> s2: call endpoint
end
@enduml

PlantUML version 1.2021.6beta6(Unknown compile time)
(GPL source distribution)
Java Runtime: Java(TM) SE Runtime Environment
JVM: Java HotSpot(TM) 64-Bit Server VM
Default Encoding: UTF-8
Language: en
Country: US
--></g></svg>