<?xml version="1.0" encoding="UTF-8" standalone="no"?><svg xmlns="http://www.w3.org/2000/svg" xmlns:xlink="http://www.w3.org/1999/xlink" contentScriptType="application/ecmascript" contentStyleType="text/css" height="94px" preserveAspectRatio="none" style="width:494px;height:94px;background:#FFFFFF;" version="1.1" viewBox="0 0 494 94" width="494px" zoomAndPan="magnify"><defs><filter height="300%" id="f1qh53we7n1u30" width="300%" x="-1" y="-1"><feGaussianBlur result="blurOut" stdDeviation="2.0"/><feColorMatrix in="blurOut" result="blurOut2" type="matrix" values="0 0 0 0 0 0 0 0 0 0 0 0 0 0 0 0 0 0 .4 0"/><feOffset dx="4.0" dy="4.0" in="blurOut2" result="blurOut3"/><feBlend in="SourceGraphic" in2="blurOut3" mode="normal"/></filter></defs><g><!--MD5=[f8575979d25025e844f82be73954e1d6]
class TokenHolder--><rect codeLine="1" fill="#FEFECE" filter="url(#f1qh53we7n1u30)" height="73.6094" id="TokenHolder" style="stroke:#A80036;stroke-width:1.5;" width="212" x="7" y="7"/><ellipse cx="71.25" cy="23" fill="#B4A7E5" rx="11" ry="11" style="stroke:#A80036;stroke-width:1.0;"/><path d="M72.2031,19.7813 L73.9219,19.7813 C74.3125,19.7813 74.5,19.75 74.625,19.6719 C74.8906,19.5156 75.0313,19.2344 75.0313,18.9375 C75.0313,18.6719 74.9219,18.4063 74.6875,18.2344 C74.5156,18.125 74.375,18.0938 73.9219,18.0938 L68.7813,18.0938 C68.3438,18.0938 68.2188,18.1094 68.0625,18.2031 C67.8125,18.3594 67.6563,18.6563 67.6563,18.9375 C67.6563,19.2188 67.7969,19.4688 68.0156,19.6406 C68.1719,19.75 68.3594,19.7813 68.7813,19.7813 L70.5,19.7813 L70.5,26.2969 L68.7813,26.2969 C68.3438,26.2969 68.2188,26.3125 68.0625,26.4219 C67.8125,26.5781 67.6563,26.8594 67.6563,27.1563 C67.6563,27.4063 67.7969,27.6719 68.0156,27.8281 C68.1719,27.9531 68.375,28 68.7813,28 L73.9219,28 C74.6719,28 75.0313,27.7188 75.0313,27.1563 C75.0313,26.875 74.9219,26.625 74.6875,26.4531 C74.5156,26.3281 74.375,26.2969 73.9219,26.2969 L72.2031,26.2969 L72.2031,19.7813 Z " fill="#000000"/><text fill="#000000" font-family="sans-serif" font-size="12" font-style="italic" lengthAdjust="spacing" textLength="75" x="91.75" y="27.1543">TokenHolder</text><line style="stroke:#A80036;stroke-width:1.5;" x1="8" x2="218" y1="39" y2="39"/><line style="stroke:#A80036;stroke-width:1.5;" x1="8" x2="218" y1="47" y2="47"/><text fill="#000000" font-family="sans-serif" font-size="11" lengthAdjust="spacing" textLength="132" x="13" y="61.2104">String getToken(String)</text><text fill="#000000" font-family="sans-serif" font-size="11" lengthAdjust="spacing" textLength="200" x="13" y="74.0151">void invalidateToken(String, String)</text><path d="M254.5,16.5 L254.5,40 L219.163,44 L254.5,48 L254.5,71.8984 A0,0 0 0 0 254.5,71.8984 L485.5,71.8984 A0,0 0 0 0 485.5,71.8984 L485.5,26.5 L475.5,16.5 L254.5,16.5 A0,0 0 0 0 254.5,16.5 " fill="#FBFB77" filter="url(#f1qh53we7n1u30)" style="stroke:#A80036;stroke-width:1.0;"/><path d="M475.5,16.5 L475.5,26.5 L485.5,26.5 L475.5,16.5 " fill="#FBFB77" style="stroke:#A80036;stroke-width:1.0;"/><text fill="#000000" font-family="sans-serif" font-size="13" lengthAdjust="spacing" textLength="193" x="260.5" y="33.5669">It should store multiple tokens</text><text fill="#000000" font-family="sans-serif" font-size="13" lengthAdjust="spacing" textLength="206" x="260.5" y="48.6997">and generate them if necessary</text><text fill="#000000" font-family="sans-serif" font-size="13" lengthAdjust="spacing" textLength="186" x="260.5" y="63.8325">on each access (on demand)</text><!--MD5=[7de3e1ead2d8a5198bef9ca2c11fa77f]
@startuml
interface TokenHolder {
  String getToken(String)
  void invalidateToken(String, String)
}
note right of TokenHolder: It should store multiple tokens \nand generate them if necessary \non each access (on demand)
@enduml

PlantUML version 1.2021.6beta6(Unknown compile time)
(GPL source distribution)
Java Runtime: Java(TM) SE Runtime Environment
JVM: Java HotSpot(TM) 64-Bit Server VM
Default Encoding: UTF-8
Language: en
Country: US
--></g></svg>